PathFileType	4	(X/Y/Z)	C:/Users/beibeiliu/ov580/test_trc/User3\sequence.15_training_dense_right.trc
DataRate	CameraRate	NumFrames	NumMarkers	Units	OrigDataRate	OrigDataStartFrame	OrigNumFrames
120	120	16	19	mm	120	1	87
Frame#	Time	ThumbCMC			ThumbMCP			ThumbIP			ThumbTip			IndexMCP			IndexPIP			IndexTip			MiddleMCP			MiddlePIP			MiddleTip			RingMCP			RingPIP			RingTip			PinkyMCP			PinkyPIP			PinkyTip			BackHand1			BackHand2			BackHand3	
		X0	Y0	Z0	X1	Y1	Z1	X2	Y2	Z2	X3	Y3	Z3	X4	Y4	Z4	X5	Y5	Z5	X6	Y6	Z6	X7	Y7	Z7	X8	Y8	Z8	X9	Y9	Z9	X10	Y10	Z10	X11	Y11	Z11	X12	Y12	Z12	X13	Y13	Z13	X14	Y14	Z14	X15	Y15	Z15	X16	Y16	Z16	X17	Y17	Z17	X18	Y18	Z18	
0	0	124.398	24.8275	37.3086	100.429	14.1602	14.2324	87.8741	3.46314	-11.5943	81.8474	-6.8579	-30.9119	137.814	36.474	-39.2448	129.374	31.0471	-67.6111	120.956	28.197	-87.5135	166.448	29.4433	-45.0854	159.915	22.1244	-72.8458	157.482	5.47517	-101.48	181.63	20.6356	-37.1787	182.985	14.906	-63.4704	185.072	2.66999	-89.2103	199.333	9.14372	-19.8643	209.802	4.18887	-39.487	219.849	-1.64512	-57.2775	183.655	33.5772	13.8662	184.919	37.7518	44.928	153.36	45.4284	28.9297	
1	0.00833333	122.711	24.6093	32.564	105.036	13.1469	15.5144	89.9689	3.03972	-12.7212	78.8278	-7.38295	-28.091	137.848	35.0982	-38.9269	127.574	32.3967	-66.9073	123.928	25.3483	-91.0361	163.031	29.3095	-44.0341	159.186	19.7818	-76.365	157.115	4.50177	-103.27	179.836	20.7006	-39.2841	187.515	13.1094	-60.0512	184.264	2.39035	-88.5951	198.534	7.94349	-18.9804	210.63	3.3931	-40.267	216.717	-2.08897	-61.4252	183.397	32.1227	13.8987	185.254	35.7949	44.3799	153.489	45.8666	25.6951	
2	0.0166667	121.858	25.199	37.5053	105.884	12.6161	12.6721	88.803	3.31132	-12.0202	82.1034	-6.70445	-29.8845	138.592	34.7427	-39.7258	127.828	32.607	-63.4074	125.59	25.884	-88.2314	163.458	28.1427	-49.2945	159.483	19.7363	-76.0749	157.868	3.23575	-104.45	182.864	19.3769	-37.8178	184.053	14.1422	-60.2784	185.349	1.69358	-87.1413	199.467	8.98313	-20.0944	210.022	2.39915	-37.5911	217.352	-1.49684	-57.1143	184.608	31.8948	12.5685	188.735	35.6355	41.4088	155.89	45.8209	26.8534	
3	0.025	120.897	25.1369	34.1563	103.402	13.1049	14.8861	89.5825	3.1443	-13.8268	79.9396	-7.69291	-31.1269	136.9	35.2042	-38.0916	127.738	30.9939	-67.709	126.991	25.286	-90.0389	167.587	26.9945	-47.2003	163.558	17.5904	-76.8479	160.635	2.67797	-102.436	182	20.6141	-39.6288	185.984	13.2962	-64.3154	184.705	1.95978	-87.896	199.186	8.49675	-18.8552	208.77	3.06518	-35.8497	220.002	-2.49592	-60.2077	182.485	34.1752	12.2242	186.615	33.9386	44.0435	152.135	45.5707	23.0296	
4	0.0333333	119.958	25.7683	32.3268	104.431	12.7895	13.3302	89.1113	3.16174	-12.8671	81.5479	-8.62527	-32.6252	138.677	35.0067	-42.4287	128.735	32.3879	-65.2123	128.019	24.7664	-89.5789	163.584	29.6187	-44.3863	161.751	18.2915	-76.9826	158.316	5.2356	-101.87	181.247	19.9919	-34.9857	183.485	14.042	-65.2972	185.447	2.35123	-89.9781	200.2	7.23086	-16.4534	211.179	3.77147	-40.4216	220.408	-3.12017	-60.5122	182.874	33.19	15.3562	189.836	34.728	43.8976	157.173	43.8994	26.8787	
5	0.0416667	120.587	24.7184	30.7972	106.435	12.035	11.8832	91.7428	2.17769	-9.87094	83.9019	-8.56841	-30.7656	136.544	36.0596	-40.9577	133.27	30.3974	-68.7362	122.289	22.9021	-93.0977	166.407	30.4533	-44.6141	164.775	20.741	-74.6562	156.856	3.1403	-99.969	181.221	22.2231	-38.7741	187.18	14.9371	-62.966	182.501	1.06354	-86.2633	203.255	8.47105	-19.8253	209.704	5.61136	-37.652	223.813	-1.75581	-61.5005	186.987	31.6807	12.8655	186.892	34.3525	41.1748	156.948	44.0742	23.0684	
6	0.05	123.523	24.1679	31.6055	103.544	13.5287	12.5245	88.8497	2.90193	-13.952	82.9515	-9.31333	-32.1426	139.498	37.5771	-41.1661	129.396	30.3568	-70.1968	127.285	10.9034	-89.9892	164.759	34.0111	-45.6788	162.041	20.4103	-75.3663	152.948	-9.97386	-92.7233	186.304	23.4345	-38.2205	187.997	12.4983	-64.0949	180.599	-10.7772	-81.3247	200.977	9.93828	-18.2137	214.359	3.1314	-39.4765	223.075	-4.53035	-62.7731	184.641	35.0527	15.858	185.209	35.4176	43.7585	155.333	45.0048	24.1264	
7	0.0583333	125.803	26.373	36.8907	108.427	15.5712	12.3879	95.3464	5.59963	-13.2715	89.3627	-5.40855	-35.0374	140.79	39.5488	-41.084	133.962	20.2349	-68.7203	125.356	-10.2295	-69.9131	167.296	30.9977	-47.2781	159.212	9.26396	-71.4287	149.13	-28.7032	-61.4439	187.635	21.2443	-39.3017	185.203	1.16936	-61.5027	167.912	-24.306	-59.4772	203.171	11.6309	-17.2921	211.836	5.40634	-38.2351	221.412	-6.32006	-61.92	187.577	38.7199	11.8484	189.43	38.2981	46.0669	156.423	48.8768	27.9789	
8	0.0666667	135.842	31.59	33.905	116.544	22.5742	13.8521	105.129	15.3438	-10.8511	96.1305	6.1932	-32.3364	146.407	35.6625	-40.5701	133.865	9.21927	-55.6346	130.416	-12.7628	-34.3309	168.37	26.0163	-44.0247	154.298	-6.10059	-52.315	146.686	-21.099	-22.8263	184.823	18.733	-35.1707	175.318	-9.09708	-46.8655	160.71	-23.9364	-16.9694	207.697	13.0465	-20.5623	209.501	3.59915	-42.7704	215.289	-11.4624	-60.0321	198.195	41.2812	13.7398	199.507	40.2232	43.6663	166.734	51.7157	30.432	
9	0.075	136.639	38.5089	38.1461	119.828	32.5835	11.9453	106.868	30.6749	-12.563	98.1927	25.9516	-36.4086	149.355	34.7244	-38.8781	133.121	8.06377	-42.5323	135.912	-2.65434	-8.86623	163.71	23.3896	-41.8915	151.155	-7.49782	-34.0148	148.664	-6.95883	1.71733	183.54	16.1488	-32.5918	168.828	-11.4175	-30.8069	161.446	-10.3749	3.04046	210.66	15.5013	-23.5588	209.05	6.01136	-44.3719	208.116	-5.62847	-64.4244	196.053	45.1448	15.3518	201.939	42.5049	42.2884	172.359	56.8852	31.3001	
10	0.0833333	141.108	43.5783	31.3638	121.313	44.8769	6.19368	107.745	45.5293	-18.8738	102.43	44.1505	-42.1286	151.329	42.8259	-38.4919	139.228	8.77466	-36.1069	146.066	5.79479	-6.01842	169.408	28.1103	-39.9338	159.507	-0.955834	-31.0464	159.346	7.40975	7.25584	186.412	19.6535	-34.2395	174.454	-5.50262	-24.8489	169.046	0.941358	8.29037	214.462	26.6682	-27.4473	212.176	19.0791	-47.979	212.193	6.96422	-71.6896	198.115	54.1985	15.1003	201.439	51.1951	44.9136	170.767	60.7346	29.3268	
11	0.0916667	143.901	46.4897	28.3421	132.325	50.2652	1.60826	116.796	56.5288	-28.393	107.811	57.4704	-49.8436	158.993	45.4493	-45.2578	154.738	12.7396	-40.8612	156.636	16.44	-7.56162	177.92	38.6009	-42.7539	170.978	5.44151	-31.8423	167.994	18.0271	5.29593	196.636	29.6641	-37.5643	188.551	2.74421	-27.2156	179.164	10.7255	5.84348	219.453	42.2901	-34.0533	224.41	32.095	-54.694	226.493	19.2335	-73.8669	205.21	64.7204	6.75182	203.609	59.8595	39.6079	170.294	68.8103	19.8315	
12	0.1	150.794	45.7218	19.511	141.229	46.8923	-6.75695	127.756	48.9545	-31.6908	118.682	50.1025	-53.2156	173.028	37.3699	-53.7058	171.17	6.77221	-44.0997	165.937	12.4823	-14.274	191.582	29.7641	-49.8949	188.51	2.01573	-31.5375	183.685	18.5932	0.314786	209.871	26.5197	-41.0297	204.453	-0.537143	-25.8014	190.179	9.11459	2.24338	235.684	43.6861	-35.5686	238.551	33.0927	-55.6717	239.908	15.8446	-74.2669	211.988	68.135	2.59656	210.242	62.7534	33.3088	177.954	69.6303	15.7987	
13	0.108333	162.494	37.8899	13.4649	148.354	35.0974	-11.4286	137.267	35.5523	-36.8409	125.516	32.6132	-54.6642	185.833	21.3198	-51.9471	180.342	-9.71621	-40.2939	174.631	7.05757	-9.33983	206.208	15.3292	-47.5144	196.566	-12.8577	-31.3396	191.198	11.8475	1.78682	221.303	8.32316	-39.2014	208.104	-12.9607	-25.5541	200.019	-2.35672	3.40455	245.668	28.7796	-31.4158	249.678	11.4516	-54.3604	245.8	-7.84367	-64.9825	218.916	56.3874	0.580636	217.579	57.3651	27.5815	184.816	61.3257	9.20016	
14	0.116667	163.104	33.7968	13.7325	147.367	29.6728	-8.39919	137.986	27.0205	-35.1732	125.36	25.0657	-57.2003	182.12	-0.819214	-49.4428	173.526	-24.0204	-28.5779	169.523	-2.90684	-5.47625	198.897	-6.44542	-42.4876	189.977	-29.0735	-22.2215	186.912	1.43839	5.29049	218.857	-12.4397	-31.8215	202.555	-31.1052	-11.4283	193.962	-7.79746	10.7235	243.123	3.65664	-27.4681	247.582	-18.5202	-44.0906	229.408	-44.6551	-43.2618	226.747	38.3167	-1.44066	220.717	47.3488	26.8721	191.925	48.9175	3.13514	
15	0.125	163.342	38.8574	14.041	149.668	34.3261	-7.60027	136.574	33.0255	-33.1445	125.914	30.477	-51.3194	170.488	-9.48993	-42.9873	153.036	-26.1733	-20.5453	157.014	-2.86712	0.648339	184.954	-22.5802	-34.1985	165.73	-32.8599	-10.2146	173.577	-2.99995	10.6882	198.665	-28.3339	-25.1928	185.668	-43.4642	-2.97968	182.623	-14.7232	19.1323	229.535	-23.3087	-20.6029	220.19	-48.2372	-29.4837	195.059	-58.9081	-15.7548	227.446	20.538	1.45986	227.265	32.0714	26.1191	196.06	41.9759	6.28089	
